<svg width="100" height="23" viewBox="0 0 100 23" fill="none" xmlns="http://www.w3.org/2000/svg">
<path d="M10.9551 13.6797L12.6543 7.46875H14.9512L12.0801 16H9.83008L6.98242 7.46875H9.26172L10.9551 13.6797ZM17.7695 16H15.7188V7.46875H17.7695V16ZM25.7207 9.05664H23.1602V16H21.1035V9.05664H18.5898V7.46875H25.7207V9.05664ZM33.6543 11.9102C33.6543 12.7422 33.5 13.4785 33.1914 14.1191C32.8828 14.7598 32.4434 15.2539 31.873 15.6016C31.3066 15.9453 30.6602 16.1172 29.9336 16.1172C29.207 16.1172 28.5625 15.9512 28 15.6191C27.4375 15.2832 26.998 14.8047 26.6816 14.1836C26.3691 13.5625 26.2051 12.8496 26.1895 12.0449V11.5645C26.1895 10.7285 26.3418 9.99219 26.6465 9.35547C26.9551 8.71484 27.3945 8.2207 27.9648 7.87305C28.5391 7.52539 29.1914 7.35156 29.9219 7.35156C30.6445 7.35156 31.2891 7.52344 31.8555 7.86719C32.4219 8.21094 32.8613 8.70117 33.1738 9.33789C33.4902 9.9707 33.6504 10.6973 33.6543 11.5176V11.9102ZM31.5625 11.5527C31.5625 10.7051 31.4199 10.0625 31.1348 9.625C30.8535 9.18359 30.4492 8.96289 29.9219 8.96289C28.8906 8.96289 28.3457 9.73633 28.2871 11.2832L28.2812 11.9102C28.2812 12.7461 28.4199 13.3887 28.6973 13.8379C28.9746 14.2871 29.3867 14.5117 29.9336 14.5117C30.4531 14.5117 30.8535 14.291 31.1348 13.8496C31.416 13.4082 31.5586 12.7734 31.5625 11.9453V11.5527ZM37.8848 12.9883H36.7715V16H34.7148V7.46875H38.0723C39.084 7.46875 39.875 7.69336 40.4453 8.14258C41.0156 8.5918 41.3008 9.22656 41.3008 10.0469C41.3008 10.6406 41.1797 11.1328 40.9375 11.5234C40.6992 11.9141 40.3242 12.2305 39.8125 12.4727L41.5938 15.9121V16H39.3906L37.8848 12.9883ZM36.7715 11.4004H38.0723C38.4629 11.4004 38.7559 11.2988 38.9512 11.0957C39.1504 10.8887 39.25 10.6016 39.25 10.2344C39.25 9.86719 39.1504 9.58008 38.9512 9.37305C38.752 9.16211 38.459 9.05664 38.0723 9.05664H36.7715V11.4004ZM45.5312 16V7.46875H48.2793C49.0332 7.46875 49.7109 7.64062 50.3125 7.98438C50.9141 8.32422 51.3828 8.80664 51.7188 9.43164C52.0586 10.0527 52.2305 10.75 52.2344 11.5234V11.916C52.2344 12.6973 52.0684 13.3984 51.7363 14.0195C51.4082 14.6367 50.9434 15.1211 50.3418 15.4727C49.7441 15.8203 49.0762 15.9961 48.3379 16H45.5312ZM47.5879 9.05664V14.418H48.3027C48.8926 14.418 49.3457 14.209 49.6621 13.791C49.9785 13.3691 50.1367 12.7441 50.1367 11.916V11.5469C50.1367 10.7227 49.9785 10.1016 49.6621 9.68359C49.3457 9.26562 48.8848 9.05664 48.2793 9.05664H47.5879ZM59.9805 7.46875V13.0527C59.9805 13.6855 59.8457 14.2344 59.5762 14.6992C59.3066 15.1602 58.9199 15.5117 58.416 15.7539C57.9121 15.9961 57.3164 16.1172 56.6289 16.1172C55.5898 16.1172 54.7715 15.8477 54.1738 15.3086C53.5762 14.7695 53.2715 14.0312 53.2598 13.0938V7.46875H55.3281V13.1348C55.3516 14.0684 55.7852 14.5352 56.6289 14.5352C57.0547 14.5352 57.377 14.418 57.5957 14.1836C57.8145 13.9492 57.9238 13.5684 57.9238 13.041V7.46875H59.9805ZM68.2539 14.9453C67.9375 15.2969 67.4746 15.5801 66.8652 15.7949C66.2559 16.0098 65.5879 16.1172 64.8613 16.1172C63.7441 16.1172 62.8516 15.7754 62.1836 15.0918C61.5156 14.4082 61.1582 13.457 61.1113 12.2383L61.1055 11.5C61.1055 10.6602 61.2539 9.92773 61.5508 9.30273C61.8477 8.67383 62.2715 8.19141 62.8223 7.85547C63.377 7.51562 64.0176 7.3457 64.7441 7.3457C65.8066 7.3457 66.6309 7.58984 67.2168 8.07812C67.8066 8.5625 68.1504 9.28711 68.248 10.252H66.2676C66.1973 9.77539 66.0449 9.43555 65.8105 9.23242C65.5762 9.0293 65.2441 8.92773 64.8145 8.92773C64.2988 8.92773 63.9004 9.14648 63.6191 9.58398C63.3379 10.0215 63.1953 10.6465 63.1914 11.459V11.9746C63.1914 12.8262 63.3359 13.4668 63.625 13.8965C63.918 14.3223 64.377 14.5352 65.002 14.5352C65.5371 14.5352 65.9355 14.416 66.1973 14.1777V12.8535H64.7676V11.4414H68.2539V14.9453ZM76.4336 14.9453C76.1172 15.2969 75.6543 15.5801 75.0449 15.7949C74.4355 16.0098 73.7676 16.1172 73.041 16.1172C71.9238 16.1172 71.0312 15.7754 70.3633 15.0918C69.6953 14.4082 69.3379 13.457 69.291 12.2383L69.2852 11.5C69.2852 10.6602 69.4336 9.92773 69.7305 9.30273C70.0273 8.67383 70.4512 8.19141 71.002 7.85547C71.5566 7.51562 72.1973 7.3457 72.9238 7.3457C73.9863 7.3457 74.8105 7.58984 75.3965 8.07812C75.9863 8.5625 76.3301 9.28711 76.4277 10.252H74.4473C74.377 9.77539 74.2246 9.43555 73.9902 9.23242C73.7559 9.0293 73.4238 8.92773 72.9941 8.92773C72.4785 8.92773 72.0801 9.14648 71.7988 9.58398C71.5176 10.0215 71.375 10.6465 71.3711 11.459V11.9746C71.3711 12.8262 71.5156 13.4668 71.8047 13.8965C72.0977 14.3223 72.5566 14.5352 73.1816 14.5352C73.7168 14.5352 74.1152 14.416 74.377 14.1777V12.8535H72.9473V11.4414H76.4336V14.9453ZM82.9199 12.3848H79.6855V14.418H83.5059V16H77.6289V7.46875H83.5176V9.05664H79.6855V10.8555H82.9199V12.3848ZM91.4688 16H89.4238L86.4004 10.6914V16H84.3438V7.46875H86.4004L89.418 12.7773V7.46875H91.4688V16Z" fill="#333333"/>
<rect x="1.5" y="1.5" width="97" height="20" stroke="#333333" stroke-width="3"/>
</svg>
